# xmcd
#
# Track frame offsets: 
#        150
#        20855
#        33605
#        47577
#        65122
#        77374
#        92439
#        110565
#        127760
#        140182
#        168829
#        186149
#        198656
#        212533
#        225958
#        239770
#        251762
#        269077
#        288947
#        302887
#
# Disc length: 4248 seconds
#
# Revision: 1
# Processed by: cddbd v1.5.2PL0 Copyright (c) Steve Scherf et al.
# Submitted via: ExactAudioCopyFreeDBPlugin 1.0
#
DISCID=26109614
DTITLE=Various Artist - De 100 Grootste Jaren 70 Hits  CD 4? 2006
DYEAR=2006
DGENRE=Country
TTITLE0=Santana - Samba Pa Ti
TTITLE1=Ballin\\' Jack - Found A Child
TTITLE2=Wild Cherry - Play That Funky Music
TTITLE3=Cheap Trick - Dream Police
TTITLE4=Anne Marie David - Tu Te Reconnaitres
TTITLE5=Dan Fogelberg - Part Of The Plan
TTITLE6=Jeane Manson - Avant De Nous Dire Adieu
TTITLE7=O\\'Jays - For The Love Of Money
TTITLE8=Christie - Yellow River
TTITLE9=Argent - Hold Your Head Up
TTITLE10=Mashmakhan - As Years Go By
TTITLE11=Ray Connif Singers - Harmoney
TTITLE12=Sly and The Family Stone - Family Affair
TTITLE13=Charlie Rich - Behind Closed Doors
TTITLE14=Chase - Get It On
TTITLE15=The Three Degrees - When Will I See You Again
TTITLE16=Blue Oyster Cult - (Don't Fear) The Reaper
TTITLE17=Heart - Barracuda
TTITLE18=Tina Charles - I Love To Love
TTITLE19=Mott The Hoople - All The Young Dudes
EXTD=YEAR: 2006
EXTT0=YEAR: 1974
EXTT1=YEAR: 1970
EXTT2=YEAR: 1976
EXTT3=YEAR: 1979
EXTT4=YEAR: 1973
EXTT5=YEAR: 1974
EXTT6=YEAR: 1976
EXTT7=YEAR: 1973
EXTT8=YEAR: 1982
EXTT9=YEAR: 1976
EXTT10=YEAR: 1970
EXTT11=YEAR: 1973
EXTT12=YEAR: 1981
EXTT13=YEAR: 1973
EXTT14=YEAR: 1971
EXTT15=YEAR: 1973
EXTT16=YEAR: 1976
EXTT17=YEAR: 1977
EXTT18=YEAR: 1976
EXTT19=YEAR: 1972
PLAYORDER=
